# xmcd
#
# Track frame offsets:
#	150
#	19690
#	41754
#	55138
#	66350
#	83778
#	95005
#	109034
#	120751
#	139181
#	155418
#	167499
#	186280
#
# Disc length: 2636 seconds
# Revision: 0
# Processed by: cddbd v1.5.2PL0 Copyright (c) Steve Scherf et al.
# Submitted via: dBpowerAMP V12.0
#
DISCID=a60a4a0d
DTITLE=Appalachian Trail - Time for Movin
DYEAR=2004
DGENRE=Country
TTITLE0=Pale Rider
TTITLE1=Tell Me Why
TTITLE2=Long Way to Virginia
TTITLE3=Shoulder to Shoulder
TTITLE4=Can't Hold Onto Much
TTITLE5=Charlie Lawson's Still
TTITLE6=Pocket Knives and Fiddle Tunes
TTITLE7=Headin' West
TTITLE8=A Christmas Tear
TTITLE9=Drivin' Blind
TTITLE10=Sunday Morning Feeling
TTITLE11=I'm Blue, I'm Lonesome Too
TTITLE12=Delivered from the Hands of Pharaoh
EXTD=
EXTT0=
EXTT1=
EXTT2=
EXTT3=
EXTT4=
EXTT5=
EXTT6=
EXTT7=
EXTT8=
EXTT9=
EXTT10=
EXTT11=
EXTT12=
PLAYORDER=
